<?xml version="1.0" standalone="no"?>
<!DOCTYPE svg PUBLIC "-//W3C//DTD SVG 20010904//EN"
 "http://www.w3.org/TR/2001/REC-SVG-20010904/DTD/svg10.dtd">
<svg version="1.0" xmlns="http://www.w3.org/2000/svg"
 width="70.000000pt" height="70.000000pt" viewBox="0 0 70.000000 70.000000"
 preserveAspectRatio="xMidYMid meet">
<metadata>
Created by potrace 1.11, written by Peter Selinger 2001-2013
</metadata>
<g transform="translate(0.000000,70.000000) scale(0.100000,-0.100000)"
fill="#000000" stroke="none">
<path d="M0 350 l0 -350 350 0 350 0 0 350 0 350 -350 0 -350 0 0 -350z m164
30 c21 -71 40 -130 41 -130 1 0 20 59 41 130 l38 130 33 0 33 0 0 -155 c0
-148 -1 -155 -20 -155 -19 0 -20 7 -21 133 l0 132 -19 -60 c-10 -33 -28 -93
-40 -132 -18 -65 -24 -73 -45 -73 -21 0 -27 8 -44 68 -11 37 -28 96 -39 132
l-20 65 -1 -132 c-1 -126 -2 -133 -21 -133 -19 0 -20 7 -20 155 l0 155 33 0
33 0 38 -130z m276 53 l0 -78 78 78 c43 43 86 77 97 77 15 0 6 -13 -38 -58
-31 -32 -57 -61 -57 -66 0 -4 27 -45 60 -91 33 -46 60 -86 60 -89 0 -3 -8 -6
-17 -6 -11 0 -36 27 -61 63 -76 111 -68 104 -97 77 -21 -20 -25 -32 -25 -82 0
-51 -2 -58 -20 -58 -19 0 -20 7 -20 155 0 148 1 155 20 155 18 0 20 -7 20 -77z"/>
</g>
</svg>
